<svg xmlns="http://www.w3.org/2000/svg" width="127" height="44" xmlns:v="https://vecta.io/nano"><path fill="#fff" fill-rule="evenodd" d="M51.51 38.365h9.547l2.34-5.855h12.646l2.4 5.855h9.733L74.226 5.367h-8.762L51.51 38.365zM66.064 25.45l3.697-9.32 3.65 9.32h-7.347zm22.678 12.914h9.084v-9.36h4.48c8.143 0 14.085-4.082 14.085-11.79 0-7.348-5.334-11.6-13.617-11.6h-14.04l.007 32.76zm9.08-16.47v-8.663h4.258c3.286 0 5.24 1.494 5.24 4.3 0 2.67-1.966 4.35-5.195 4.35h-4.3l-.005.01zm20.048 16.48h9.126V5.606h-9.126v32.77zM3.863 15.752c.228.788.547 1.546.95 2.26l-1.145 1.444c-.374.47-.335 1.148.1 1.573L5.73 22.99c.423.428 1.102.467 1.57.1l1.436-1.135c.738.425 1.525.76 2.343.996l.215 1.842c.07.595.575 1.044 1.174 1.046h2.788c.6 0 1.095-.448 1.175-1.046l.206-1.792c.878-.228 1.722-.57 2.51-1.016l1.39 1.095c.472.368 1.144.33 1.57-.1L24.082 21c.425-.42.464-1.095.1-1.563l-1.08-1.374c.45-.775.798-1.605 1.034-2.47l1.665-.2c.596-.07 1.046-.574 1.047-1.175V11.42c-.001-.6-.45-1.105-1.047-1.175l-1.64-.2a10.37 10.37 0 0 0-.996-2.44l1-1.275c.374-.47.335-1.148-.1-1.573l-1.977-1.98c-.423-.428-1.102-.467-1.57-.1l-1.24.996c-.802-.476-1.666-.836-2.567-1.075l-.187-1.593C16.456.43 15.954-.002 15.364 0h-2.788c-.603.002-1.108.456-1.174 1.055l-.187 1.593c-.922.247-1.807.615-2.633 1.095l-1.286-.996c-.47-.372-1.146-.334-1.57.1L3.75 4.81c-.424.426-.463 1.102-.09 1.573l1.075 1.364a10.27 10.27 0 0 0-.973 2.459l-1.72.2c-.596.07-1.046.574-1.048 1.175v2.788c-.004.602.45 1.1 1.048 1.175l1.818.21zM13.98 8.205c1.867 0 3.55 1.125 4.265 2.85s.32 3.71-1.003 5.03-3.306 1.713-5.03.998a4.61 4.61 0 0 1-2.846-4.268 4.62 4.62 0 0 1 4.615-4.61h0zm27.6 8.245l-1.474-1.245c-.45-.398-1.122-.368-1.553.04L37.74 16c-.69-.327-1.42-.56-2.17-.697l-.23-1.125c-.123-.58-.654-.978-1.244-.936l-1.922.17c-.59.048-1.052.532-1.07 1.125l-.038 1.145c-.74.26-1.437.626-2.072 1.085l-.972-.647c-.495-.326-1.155-.232-1.54.22l-1.245 1.494c-.384.453-.366 1.122.042 1.553l.85.896a8.73 8.73 0 0 0-.627 2.091l-1.215.25c-.584.115-.988.652-.936 1.245l.164 1.922c.05.6.535 1.048 1.126 1.065l1.314.05c.24.625.553 1.22.93 1.772l-.734 1.095c-.328.496-.234 1.158.22 1.543l1.474 1.245a1.17 1.17 0 0 0 1.553-.04l.964-.896a8.16 8.16 0 0 0 1.977.647l.267 1.314c.115.584.65.987 1.244.936l1.922-.16a1.17 1.17 0 0 0 1.07-1.125l.043-1.294c.7-.25 1.364-.587 1.977-1.006l1.06.697c.495.326 1.155.232 1.54-.22l1.245-1.474c.384-.453.366-1.122-.042-1.553l-.856-.896c.315-.665.542-1.368.674-2.09l1.17-.24c.584-.115.987-.652.935-1.245l-.163-1.922a1.17 1.17 0 0 0-1.127-1.065l-1.175-.04a8.39 8.39 0 0 0-.978-1.932l.64-.956a1.16 1.16 0 0 0-.211-1.543l.002-.01zM34.337 27.57c-1.526.13-2.98-.67-3.684-2.03s-.52-3 .47-4.18 2.584-1.63 4.043-1.163 2.493 1.765 2.62 3.292c.172 2.078-1.37 3.904-3.447 4.082h0zM10.59 32.75a1.17 1.17 0 0 0-1.047 1.155L9.527 35.1c-.005.593.432 1.097 1.02 1.175l.87.1a6.81 6.81 0 0 0 .617 1.513l-.56.697c-.376.46-.346 1.13.07 1.553l.828.846a1.15 1.15 0 0 0 1.553.1l.697-.538a6.64 6.64 0 0 0 1.553.677l.094.896c.06.59.556 1.04 1.15 1.046l1.195.02c.596.01 1.103-.434 1.174-1.026l.108-.846a7.53 7.53 0 0 0 1.693-.657l.655.528a1.16 1.16 0 0 0 1.553-.07l.846-.826c.427-.414.474-1.084.108-1.553l-.498-.647a6.87 6.87 0 0 0 .711-1.643l.777-.08a1.16 1.16 0 0 0 1.047-1.145l.015-1.195a1.17 1.17 0 0 0-1.02-1.175l-.757-.1a7.14 7.14 0 0 0-.641-1.633l.473-.578c.376-.46.346-1.13-.07-1.553l-.826-.846a1.15 1.15 0 0 0-1.553-.1l-.568.428a7.08 7.08 0 0 0-1.703-.737l-.075-.737c-.065-.59-.56-1.037-1.15-1.046l-1.183-.01c-.593-.01-1.098.428-1.174 1.016l-.094.737c-.617.16-1.21.398-1.762.717l-.584-.478a1.16 1.16 0 0 0-1.553.07l-.85.836a1.17 1.17 0 0 0-.108 1.553l.498.637c-.293.518-.518 1.068-.67 1.643l-.84.08zm7.637-1.334c1.244.015 2.357.78 2.82 1.935s.182 2.476-.71 3.345-2.218 1.115-3.362.624-1.88-1.622-1.863-2.867a3.08 3.08 0 0 1 3.115-3.037h0z"/></svg>