<?xml version="1.0" encoding="utf-8"?><!DOCTYPE svg PUBLIC "-//W3C//DTD SVG 1.1//EN" "http://www.w3.org/Graphics/SVG/1.1/DTD/svg11.dtd"><svg viewBox="0 0 540 512" xmlns="http://www.w3.org/2000/svg" xmlns:xlink="http://www.w3.org/1999/xlink"><style>:root>svg{display:none}:root>svg:target{display:block}</style><svg viewBox="0 0 321 208" id="arrow-down" xmlns="http://www.w3.org/2000/svg"><path d="M144 200.3L8 64.3c-9.4-9.4-9.4-24.6 0-33.9L30.6 7.8c9.4-9.4 24.6-9.4 33.9 0l96.4 96.4 96.4-96.4c9.4-9.4 24.6-9.4 33.9 0l22.6 22.6c9.4 9.4 9.4 24.6 0 33.9l-136 136c-9.2 9.4-24.4 9.4-33.8 0z"/></svg><svg viewBox="0 0 208 320" id="arrow-right" xmlns="http://www.w3.org/2000/svg"><path d="M200.15 176.95l-136 136c-9.4 9.4-24.6 9.4-33.9 0l-22.6-22.6c-9.303-9.303-9.4-24.287-.288-33.61l96.688-96.69-96.4-96.4c-9.303-9.303-9.4-24.287-.288-33.61L30.25 7.15c9.303-9.303 24.287-9.4 33.61-.288L200.15 143.15c9.303 9.105 9.4 24.087.288 33.507l-.288.293z"/></svg><svg viewBox="0 0 30 32" id="cal" xmlns="http://www.w3.org/2000/svg"><path d="M27.324 3H23V1a1 1 0 10-2 0v2H9V1a1 1 0 10-2 0v2H2.657C1.95 3 1.27 3.28.77 3.78s-.78 1.18-.78 1.886v23.667a2.667 2.667 0 002.666 2.666h24.667a2.667 2.667 0 002.666-2.666V5.666A2.665 2.665 0 0027.324 3zM28 29.333a.667.667 0 01-.666.667H2.657c-.177 0-.347-.07-.472-.195S2 29.5 2 29.333V5.666A.668.668 0 012.667 5H7v2a1 1 0 102 0V5h12v2a1 1 0 102 0V5h4.334a.667.667 0 01.666.666v23.667zM7.007 12h4v3h-4v-3zm0 5h4v3h-4v-3zm0 5h4v3h-4v-3zm6 0h4v3h-4v-3zm0-5h4v3h-4v-3zm0-5h4v3h-4v-3zm6 10h4v3h-4v-3zm0-5h4v3h-4v-3zm0-5h4v3h-4v-3z" fill-rule="evenodd"/></svg><svg viewBox="0 0 29.844 30" id="check" xmlns="http://www.w3.org/2000/svg"><path d="M25 27.985H2V4.96h17.23l1.43-2H2.3A2.3 2.3 0 00.006 5.27V27.7A2.3 2.3 0 002.3 30.008h22.4A2.3 2.3 0 0027 27.7V12.46l-2.012 3.7v11.825zM29.1.264a1.6 1.6 0 00-2.222.468L14.41 18.837l-4.824-5.542a1.6 1.6 0 00-2.27.088 1.62 1.62 0 00.089 2.284l6.087 6.99.06.036.123.122.313.144.072.034.493.086h.02a1.58 1.58 0 001.188-.507l.13-.212.007-.01L29.57 2.505c.487-.75.277-1.75-.47-2.24z" fill-rule="evenodd"/></svg><svg viewBox="0 0 276 512" id="facebook" xmlns="http://www.w3.org/2000/svg"><path d="M257.14 288l14.22-92.66h-88.9V135.2c0-25.35 12.42-50.06 52.24-50.06h40.42V6.26S238.43 0 203.36 0C130.14 0 82.28 44.38 82.28 124.72v70.62H.9V288h81.4v224h100.17V288h74.7z"/></svg><svg viewBox="0 0 28 29" id="features-1" xmlns="http://www.w3.org/2000/svg"><path fill-rule="evenodd" d="M22.495 22.964c.362 0 .675.254.75.61l.786 3.754a.77.77 0 01-1.31.678l-2.492-3.754a.77.77 0 01.561-1.287l1.705-.001zm-15.231 0a.77.77 0 01.561 1.287l-2.492 3.754a.77.77 0 01-1.31-.678l.785-3.753a.766.766 0 01.75-.61h1.706zm8.408.036a.33.33 0 01.321.262l.007.066v2.344a.33.33 0 01-.262.321l-.066.007h-3.344a.33.33 0 01-.321-.262L12 25.672v-2.344a.33.33 0 01.262-.321l.066-.007h3.344zm2-23a.33.33 0 01.321.262L18 .328V1h.672a.33.33 0 01.321.262l.007.066V2h8.344c.33 0 .602.243.649.56l.007.096v18.687c0 .33-.243.602-.56.649l-.096.007H.656a.656.656 0 01-.649-.559L0 21.343V2.656c0-.33.243-.602.56-.649L.655 2H9v-.672c0-.158.113-.29.262-.321L9.328 1H10V.328a.33.33 0 01.262-.321L10.328 0h7.344zM25 5H3v14h22V5z"/></svg><svg viewBox="0 0 28 28" id="features-2" xmlns="http://www.w3.org/2000/svg"><path d="M14 7a7.01 7.01 0 00-7 7 7.01 7.01 0 007 7 7.01 7.01 0 007-7 7.01 7.01 0 00-7-7zm0 12.25A5.26 5.26 0 018.75 14 5.26 5.26 0 0114 8.75 5.26 5.26 0 0119.25 14 5.26 5.26 0 0114 19.25zm13.34-8.438l-2.152-.468a11.71 11.71 0 00-.692-1.67l1.2-1.853a.837.837 0 00-.112-1.044L22.22 2.424a.837.837 0 00-1.044-.112l-1.853 1.2a11.71 11.71 0 00-1.67-.693L17.188.66A.836.836 0 0016.37 0h-4.74a.837.837 0 00-.818.66l-.468 2.152a11.71 11.71 0 00-1.67.693L6.82 2.312a.837.837 0 00-1.044.112L2.424 5.777a.837.837 0 00-.112 1.044l1.2 1.853a11.71 11.71 0 00-.693 1.67l-2.152.468a.84.84 0 00-.66.818v4.74c0 .393.274.734.66.817l2.152.468a11.71 11.71 0 00.693 1.67l-1.2 1.853a.837.837 0 00.112 1.044l3.353 3.353a.837.837 0 001.044.112l1.853-1.2a11.71 11.71 0 001.67.692l.468 2.152a.84.84 0 00.818.66h4.74a.836.836 0 00.817-.66l.468-2.152a11.71 11.71 0 001.67-.692l1.853 1.2a.837.837 0 001.044-.112l3.353-3.353a.837.837 0 00.112-1.044l-1.2-1.853a11.71 11.71 0 00.692-1.67l2.152-.468a.84.84 0 00.66-.817v-4.74a.837.837 0 00-.66-.818zm-1.015 4.884l-1.973.43a.836.836 0 00-.628.593 10.11 10.11 0 01-.927 2.236.84.84 0 00.025.864l1.093 1.7-2.4 2.4-1.7-1.093a.836.836 0 00-.863-.025 10.56 10.56 0 01-2.236.927.834.834 0 00-.593.628l-.43 1.973H12.3l-.43-1.973a.836.836 0 00-.593-.628 10.11 10.11 0 01-2.236-.927.84.84 0 00-.864.025l-1.7 1.093-2.4-2.4 1.092-1.7a.836.836 0 00.025-.864 10.05 10.05 0 01-.927-2.236.834.834 0 00-.628-.593l-1.973-.43v-3.392l1.973-.43a.836.836 0 00.628-.593 10.04 10.04 0 01.927-2.236.836.836 0 00-.025-.864l-1.093-1.7 2.4-2.4 1.7 1.093c.26.168.593.177.863.025a10.56 10.56 0 012.236-.927.834.834 0 00.593-.628l.43-1.973h3.392l.43 1.973a.836.836 0 00.593.628 10.04 10.04 0 012.236.927c.27.153.603.143.864-.025l1.7-1.093 2.4 2.4-1.092 1.7a.836.836 0 00-.025.864 10.56 10.56 0 01.927 2.236c.083.3.325.527.628.593l1.973.43v3.392z"/></svg><svg viewBox="0 0 28 28" id="features-3" xmlns="http://www.w3.org/2000/svg"><path d="M27.848 4.823V0h-4.614c-.193 0-.3.244-.153.387l1.356 1.417-7.554 6.74a.104.104 0 01-.133.006l-4.833-3.624a2.404 2.404 0 00-2.85-.04L.63 10.863c-.545.386-.687 1.16-.318 1.73a1.16 1.16 0 001.655.332l8.432-5.978a.104.104 0 01.124.002l4.833 3.624c.93.698 2.198.643 3.07-.135l7.59-6.772a1.22 1.22 0 00.101-.101l1.356 1.418c.137.143.37.042.37-.16zm-4.66 4.92a.332.332 0 00-.325.34v17.58c0 .188.146.34.325.34h4.487c.18 0 .325-.152.325-.34v-17.58a.332.332 0 00-.325-.34h-4.487zm-7.9 6.708c0-.188.146-.34.325-.34H20.1c.18 0 .325.152.325.34v11.135c0 .188-.146.34-.325.34h-4.487a.332.332 0 01-.325-.34V16.45zm-7.26-3.562a.332.332 0 00-.325.34v14.357c0 .188.146.34.325.34h4.487c.18 0 .325-.152.325-.34V13.228a.333.333 0 00-.325-.34H8.018zM0 17.6c0-.188.146-.34.325-.34h4.487c.18 0 .325.152.325.34v10.06c0 .188-.146.34-.325.34H.325A.333.333 0 010 27.66V17.6z"/></svg><svg viewBox="0 0 35 26" id="features-4" xmlns="http://www.w3.org/2000/svg"><path fill-rule="evenodd" d="M24.556 8.75a6.836 6.836 0 015.975 10.156l3.354 3.354a1.244 1.244 0 010 1.758l-1.617 1.617a1.244 1.244 0 01-1.758 0l-3.623-3.623a6.805 6.805 0 01-1.982.4l-.349.008a6.834 6.834 0 010-13.67zm-8.51 11.463c.086 0 .169.036.228.099l.04.051a9.756 9.756 0 002.652 2.817c.244.173.155.585-.115.647l-.071.008H6.294a.31.31 0 01-.305-.25l-.006-.061v-3a.31.31 0 01.25-.305l.061-.006h9.752zm-12.429-.035a.31.31 0 01.311.311v3a.31.31 0 01-.311.311h-3a.31.31 0 01-.311-.311v-3a.31.31 0 01.311-.311h3zm20.939-9.04a4.45 4.45 0 00-4.448 4.448 4.45 4.45 0 004.448 4.448 4.45 4.45 0 004.448-4.448 4.45 4.45 0 00-4.448-4.448zM3.617 13.452a.31.31 0 01.311.311v3a.31.31 0 01-.311.311h-3a.31.31 0 01-.311-.311v-3a.31.31 0 01.311-.311h3zm11.041-.002a.32.32 0 01.315.301l-.003.069c-.068.471-.104.951-.104 1.441 0 .482.035.964.106 1.441a.32.32 0 01-.244.362l-.069.008H6.294a.31.31 0 01-.305-.25l-.006-.061v-3a.31.31 0 01.25-.305l.061-.006h8.364zm4.121-6.76c.3 0 .43.399.24.607l-.054.048a9.75 9.75 0 00-2.65 2.816.334.334 0 01-.207.143l-.061.007H6.294a.31.31 0 01-.305-.25L5.983 10V7a.31.31 0 01.25-.304l.061-.006h12.485zM3.617 6.472a.31.31 0 01.311.311v3a.31.31 0 01-.311.311h-3a.31.31 0 01-.311-.311v-3a.31.31 0 01.311-.311h3zM3.616 0a.31.31 0 01.311.311v3a.31.31 0 01-.311.311h-3a.31.31 0 01-.311-.311L.306.31A.31.31 0 01.616 0h3zm25.908 0a.31.31 0 01.311.311v3a.31.31 0 01-.311.311H6.294a.31.31 0 01-.311-.311V.31A.31.31 0 016.294 0h23.23z"/></svg><svg viewBox="0 0 24 32" id="lock" xmlns="http://www.w3.org/2000/svg"><path d="M21 32H3a3 3 0 01-3-3V16a3 3 0 013-3h1V8a8 8 0 1116 0v5h1a3 3 0 013 3v13a3 3 0 01-3 3zM18 8A6 6 0 106 8v5h12V8zm4 8a1 1 0 00-1-1H3a1 1 0 00-1 1v13a1 1 0 001 1h18a1 1 0 001-1V16zM12 26a1.993 1.993 0 01-1-3.722V20a1 1 0 112 0v2.278a1.993 1.993 0 01-1 3.727z" fill-rule="evenodd"/></svg><svg viewBox="0 0 36 32" id="login" xmlns="http://www.w3.org/2000/svg"><path d="M20.17 0l.31.003c8.415.172 15.2 7.28 15.2 15.997 0 8.823-6.963 16-15.522 16-5.164 0-9.975-2.637-12.87-7.053-.587-.895-.36-2.112.5-2.716s2.048-.37 2.635.526c2.188 3.338 5.824 5.33 9.726 5.33 6.466 0 11.727-5.423 11.727-12.088S26.636 3.912 20.17 3.912c-3.913 0-7.555 2.002-9.74 5.355-.584.896-1.763 1.134-2.633.532s-1.1-1.818-.517-2.714c2.825-4.333 7.488-6.96 12.53-7.08L20.17 0zm-2.112 8.75l5.756 5.938.075.09.096.135.11.192.035.072.04.093.03.08.03.102.04.164.027.19a2.12 2.12 0 01.01.195c0 .065-.003.13-.01.195l-.027.2-.045.185-.062.18-.08.173-.096.165-.11.154c-.04.05-.08.097-.125.142l-5.692 5.868a1.86 1.86 0 01-1.342.573c-.486 0-.97-.19-1.342-.573a2 2 0 010-2.766l2.454-2.53H1.898C.85 17.956 0 17.08 0 16s.85-1.956 1.898-1.956h15.93l-2.454-2.53a2 2 0 010-2.766 1.858 1.858 0 012.684 0z"/></svg><svg viewBox="0 0 32 32" id="phone" xmlns="http://www.w3.org/2000/svg"><path d="M31.283 25.3l-4.942-4.954c-.984-.983-2.614-.953-3.633.068l-2.5 2.495-.49-.274c-1.572-.873-3.724-2.07-5.988-4.34-2.27-2.276-3.466-4.436-4.34-6.013l-.268-.48 2.492-2.497c1.02-1.023 1.048-2.656.066-3.642L6.747.717c-.982-.984-2.613-.954-3.633.07L1.72 2.2l.038.038A8.09 8.09 0 00.611 4.257 8.464 8.464 0 00.1 6.315c-.653 5.422 1.82 10.377 8.53 17.102 9.274 9.294 16.747 8.592 17.07 8.558a8.34 8.34 0 002.059-.518 8.02 8.02 0 002.017-1.145l.03.027 1.41-1.385c1.018-1.023 1.047-2.657.066-3.644h.001z"/></svg><svg fill-rule="evenodd" clip-rule="evenodd" stroke-linejoin="round" stroke-miterlimit="1.414" viewBox="0 0 24 24" id="telegram" xmlns="http://www.w3.org/2000/svg"><path d="M12 0C5.374 0 0 5.372 0 12c0 6.627 5.374 12 12 12 6.627 0 12-5.373 12-12 0-6.628-5.373-12-12-12zm3.224 17.871c.188.133.43.166.646.085a.678.678 0 00.422-.491c.507-2.382 1.737-8.412 2.198-10.578a.457.457 0 00-.151-.443.47.47 0 00-.465-.082c-2.446.906-9.979 3.732-13.058 4.871a.484.484 0 00-.316.467.483.483 0 00.346.445c1.381.413 3.193.988 3.193.988s.847 2.558 1.288 3.858a.512.512 0 00.352.336.505.505 0 00.474-.121l1.805-1.704s2.084 1.527 3.266 2.369zm-6.423-5.062l.98 3.231.218-2.046 5.941-5.358a.162.162 0 00.019-.22.165.165 0 00-.219-.037l-6.939 4.43z"/></svg><svg fill-rule="evenodd" clip-rule="evenodd" stroke-linejoin="round" stroke-miterlimit="1.414" viewBox="0 0 24 24" id="telegram-plain" xmlns="http://www.w3.org/2000/svg"><path d="M18.384 22.779a1.19 1.19 0 001.107.145 1.16 1.16 0 00.724-.84C21.084 18 23.192 7.663 23.983 3.948a.78.78 0 00-.26-.758.8.8 0 00-.797-.14C18.733 4.602 5.82 9.447.542 11.4a.827.827 0 00-.542.799c.012.354.25.661.593.764 2.367.708 5.474 1.693 5.474 1.693s1.452 4.385 2.209 6.615c.095.28.314.5.603.576a.866.866 0 00.811-.207l3.096-2.923s3.572 2.619 5.598 4.062zm-11.01-8.677l1.679 5.538.373-3.507 10.185-9.186a.277.277 0 00.033-.377.284.284 0 00-.376-.064L7.374 14.102z"/></svg><svg viewBox="0 0 540 320" id="vk" xmlns="http://www.w3.org/2000/svg"><path d="M527 21.7C530.7 9.2 527 0 509.2 0h-58.9c-15 0-21.9 7.9-25.6 16.7 0 0-30 73.1-72.4 120.5-13.7 13.7-20 18.1-27.5 18.1-3.7 0-9.4-4.4-9.4-16.9V21.7c0-15-4.2-21.7-16.6-21.7h-92.6c-9.4 0-15 7-15 13.5 0 14.2 21.2 17.5 23.4 57.5v86.8c0 19-3.4 22.5-10.9 22.5-20 0-68.6-73.4-97.4-157.4C100.5 6.6 94.8 0 79.7 0H20.8C4 0 .6 7.9.6 16.7c0 15.6 20 93.1 93.1 195.5C142.4 282.1 211 320 273.4 320c37.5 0 42.1-8.4 42.1-22.9 0-66.8-3.4-73.1 15.4-73.1 8.7 0 23.7 4.4 58.7 38.1 40 40 46.6 57.9 69 57.9h58.9c16.8 0 25.3-8.4 20.4-25-11.2-34.9-86.9-106.7-90.3-111.5-8.7-11.2-6.2-16.2 0-26.2.1-.1 72-101.3 79.4-135.6z"/></svg></svg>