<svg xmlns="http://www.w3.org/2000/svg" width="158" height="77" viewBox="0 0 158 77" fill="none"><path d="M0 23.817l9.5-9.478 5.257 5.35-9.46 9.417L0 23.817z" fill="#fff"/><path d="M.42 5.11L5.913 0 20.1 14.33l-5.362 5.36L.42 5.11z" fill="#f9522c"/><path d="M33.235 29.28h8.016V18.153H51.54V29.28h8.016V0H51.54v10.958H41.25V0h-8.016v29.28zm37.6 6.818c4.462 0 6.57-2.09 8.512-7.36l8.18-22.084H79.47l-4.215 13.635L70.793 6.65H62.57l8.76 22.2c-.496.71-1.033.92-1.818.92-.868 0-2.2-.46-3.43-1.213l-2.438 5.563c2.066 1.17 4.42 1.966 7.19 1.966zm19.254-.125h7.85v-9.453c1.446 1.715 3.43 3.262 6.818 3.262 5.288 0 9.875-4.476 9.875-11.837 0-7.32-4.587-11.795-9.917-11.795-3.347 0-5.247 1.63-6.776 3.514V6.65h-7.85v29.32zm12.23-12.84c-2.522 0-4.547-2.133-4.547-5.145 0-3.053 2.025-5.186 4.547-5.186 2.56 0 4.586 2.133 4.586 5.102 0 3.137-2.026 5.23-4.586 5.23zm26.773 6.693c4.462 0 7.56-1.84 9.71-4.6l-4.338-3.64c-1.61 1.6-3.098 2.3-4.957 2.3-2.44 0-4.215-1.255-4.835-3.722h14.957c.04-.544.04-1.13.04-1.632 0-6.65-3.552-12.38-11.28-12.38-6.61 0-11.28 5.228-11.28 11.837 0 7.11 4.958 11.837 11.982 11.837zm-4.546-13.72c.414-2.468 1.82-4.1 3.885-4.1 2.15 0 3.594 1.59 3.884 4.1h-7.77zm18.47 13.175h7.85v-7.027c0-5.228 2.314-7.613 6.405-7.613h.66V6.274c-3.718-.167-5.784 1.84-7.065 4.936V6.65h-7.85V29.28z" fill="#fff"/><path d="M45.19 70.126c5.736 0 9.863-3.218 9.863-8.168 0-4.497-2.97-6.848-9.41-8.25-6.355-1.36-7.84-2.887-7.84-5.6 0-2.68 2.393-4.744 6.15-4.744 2.97 0 5.654.95 8.337 3.135l1.898-2.517c-2.93-2.35-5.942-3.548-10.15-3.548-5.5 0-9.492 3.34-9.492 7.88 0 4.827 3.054 6.972 9.698 8.416 6.066 1.28 7.51 2.805 7.51 5.487 0 2.93-2.56 4.99-6.44 4.99-4.003 0-6.892-1.36-9.904-4.084l-2.022 2.393c3.467 3.093 7.22 4.62 11.803 4.62zm23.523.082c4.003 0 6.562-1.733 8.707-4.125l-2.104-1.94c-1.692 1.815-3.715 3.218-6.438 3.218-4.458 0-7.84-3.672-7.84-8.292 0-4.66 3.3-8.333 7.636-8.333 2.888 0 4.868 1.36 6.56 3.136l2.023-2.145c-1.98-2.104-4.5-3.795-8.543-3.795-6.23 0-10.936 5.116-10.936 11.138 0 6.064 4.704 11.14 10.936 11.14zm12.71-.496h3.178v-8.498c0-6.436 3.797-9.777 8.46-9.777h.248v-3.424c-4.044-.165-7.14 2.393-8.708 5.94v-5.57h-3.178v21.327zm15.146-25.99h3.63v-3.507h-3.63v3.507zm.206 25.99h3.178V48.386h-3.178v21.327zm8.5 6.6h3.178V65.63c1.65 2.393 4.21 4.538 8.17 4.538 5.16 0 10.194-4.126 10.194-11.098 0-7.096-5.077-11.138-10.194-11.138-3.92 0-6.44 2.186-8.17 4.744v-4.3h-3.178v27.928zm10.772-8.993c-3.962 0-7.718-3.3-7.718-8.25s3.756-8.29 7.718-8.29c4.043 0 7.5 3.217 7.5 8.25 0 5.24-3.383 8.292-7.5 8.292zm21.706 2.764c1.527 0 2.724-.33 3.838-.908v-2.723c-1.114.536-2.022.742-3.094.742-2.147 0-3.59-.95-3.59-3.547V51.2h6.77v-2.805h-6.77V41.95h-3.178v6.435h-2.972V51.2h2.972v12.87c0 4.33 2.6 6.023 6.025 6.023z" fill="#9ac8d3"/></svg>