<svg xmlns="http://www.w3.org/2000/svg" width="140" height="33" viewBox="0 0 140 33" fill="none"><g fill="#fff"><path d="M73.57 7.78c-1.08 0-1.99-.378-2.71-1.122a3.82 3.82 0 0 1-1.095-2.738c0-1.086.37-2.006 1.095-2.735C71.577.44 72.488.063 73.568.063c1.068 0 1.98.378 2.71 1.122.726.753 1.095 1.672 1.095 2.735-.012 1.09-.38 2.01-1.095 2.735-.717.75-1.628 1.125-2.708 1.125zm-32.143 0c-1.057 0-1.973-.372-2.723-1.107-.744-.732-1.122-1.658-1.122-2.75s.378-2.018 1.122-2.75C39.44.438 40.357.066 41.428.066c.524 0 1.033.104 1.52.315.48.205.87.485 1.158.827l.07.086-.806.792-.083-.098c-.455-.542-1.065-.806-1.872-.806-.72 0-1.348.256-1.866.762s-.786 1.175-.786 1.982.265 1.473.786 1.982 1.146.762 1.866.762c.768 0 1.413-.256 1.916-.762.298-.298.482-.714.547-1.24h-2.586V3.553h3.696l.015.1.054.56c0 1.027-.31 1.857-.922 2.47-.696.726-1.607 1.095-2.708 1.095zm42.737-.158h-1.14l-3.49-5.586.03 1.006V7.62h-1.14V.223h1.3l.036.057 3.282 5.26-.03-1.003V.223h1.152v7.398zm-19.16 0h-1.155V1.336H61.85V.223h5.157v1.113h-2.003v6.285h.003zm-4.098 0h-1.152V.223h1.152v7.398zm-6.473 0h-1.152V1.336h-2.003V.223h5.157v1.113h-2.003v6.285zM50.553 7.6h-4.416V.223h4.416v1.113H47.29v2.03h2.943v1.1H47.29v2.03h3.262V7.6zm21.153-1.717c.515.515 1.14.774 1.866.774.747 0 1.357-.253 1.866-.774.506-.506.762-1.17.762-1.97s-.256-1.467-.76-1.97a2.55 2.55 0 0 0-1.866-.774 2.47 2.47 0 0 0-1.863.774c-.506.506-.762 1.17-.762 1.97s.253 1.467.756 1.97z"/><path d="M69.658 17.95c-2.812 0-5.092 2.134-5.092 5.077 0 2.916 2.294 5.077 5.092 5.077 2.812 0 5.092-2.15 5.092-5.077 0-2.943-2.28-5.077-5.092-5.077zm0 8.142c-1.54 0-2.863-1.274-2.863-3.077 0-1.83 1.327-3.077 2.863-3.077s2.863 1.247 2.863 3.077c.003 1.815-1.324 3.077-2.863 3.077zM58.55 17.95c-2.812 0-5.092 2.134-5.092 5.077 0 2.916 2.294 5.077 5.092 5.077 2.812 0 5.092-2.15 5.092-5.077 0-2.943-2.282-5.077-5.092-5.077zm0 8.142c-1.54 0-2.863-1.274-2.863-3.077 0-1.83 1.327-3.077 2.863-3.077s2.863 1.247 2.863 3.077c0 1.815-1.324 3.077-2.863 3.077zM45.33 19.5v2.15h5.157c-.158 1.205-.556 2.095-1.167 2.705-.756.756-1.922 1.577-3.98 1.577-3.17 0-5.648-2.56-5.648-5.73s2.48-5.73 5.648-5.73c1.71 0 2.958.675 3.884 1.54L50.75 14.5c-1.286-1.232-2.997-2.175-5.395-2.175-4.348 0-7.996 3.54-7.996 7.877 0 4.348 3.645 7.877 7.996 7.877 2.348 0 4.1-.768 5.502-2.214 1.42-1.42 1.87-3.422 1.87-5.038 0-.503-.04-.955-.12-1.34h-7.28c.003-.003.003.024.003.024zm54.07 1.672c-.426-1.14-1.71-3.235-4.348-3.235-2.613 0-4.785 2.056-4.785 5.077 0 2.85 2.15 5.077 5.038 5.077 2.32 0 3.672-1.42 4.23-2.253L97.8 24.685c-.57.848-1.366 1.405-2.494 1.405-1.14 0-1.937-.518-2.467-1.54l6.788-2.812c0 .003-.238-.566-.238-.566zm-6.922 1.696c-.054-1.96 1.524-2.958 2.65-2.958.9 0 1.63.437 1.884 1.074l-4.535 1.884zm-5.514 4.92h2.23V12.874h-2.23V27.79zm-3.66-8.7h-.08c-.503-.598-1.458-1.14-2.678-1.14-2.532 0-4.866 2.23-4.866 5.092 0 2.85 2.32 5.053 4.866 5.053 1.205 0 2.175-.545 2.678-1.155h.08v.73c0 1.937-1.036 2.982-2.705 2.982-1.366 0-2.214-.982-2.56-1.803l-1.937.81c.556 1.34 2.042 2.997 4.494 2.997 2.613 0 4.827-1.538 4.827-5.29v-9.11h-2.107v.836zm-2.56 7.014c-1.54 0-2.824-1.286-2.824-3.062 0-1.79 1.286-3.09 2.824-3.09 1.524 0 2.705 1.312 2.705 3.09.015 1.777-1.178 3.062-2.705 3.062zm29.092-13.22h-5.33V27.79h2.23V22.14h3.103c2.467 0 4.893-1.788 4.893-4.627s-2.417-4.64-4.896-4.64zm.066 7.184h-3.17v-5.12h3.17c1.67 0 2.613 1.378 2.613 2.56 0 1.17-.956 2.56-2.613 2.56zm13.764-2.134c-1.62 0-3.29.717-3.98 2.28l1.976.82c.425-.82 1.205-1.1 2.03-1.1 1.155 0 2.322.7 2.348 1.922v.158c-.398-.226-1.273-.57-2.32-.57-2.134 0-4.297 1.166-4.297 3.354 0 2.003 1.75 3.288 3.7 3.288 1.497 0 2.32-.675 2.836-1.458h.08v1.155h2.15v-5.714c0-2.66-1.976-4.134-4.52-4.134zm-.28 8.17c-.73 0-1.75-.357-1.75-1.274 0-1.155 1.274-1.592 2.36-1.592.982 0 1.446.21 2.03.503-.16 1.34-1.29 2.35-2.64 2.363zm12.64-7.85l-2.56 6.47h-.08l-2.652-6.47h-2.398l3.98 9.044-2.268 5.026h2.32l6.122-14.07h-2.464zM115.96 27.79h2.23V12.874h-2.23V27.79z" class="B"/></g><path d="M.804.98C.46 1.35.26 1.92.26 2.663V29.05c0 .744.2 1.312.556 1.67l.092.08 14.784-14.784v-.33L.897.9.804.98z" fill="url(#A)" class="B"/><path d="M20.612 20.96l-4.93-4.93v-.345l4.93-4.93.107.065 5.833 3.315c1.67.94 1.67 2.494 0 3.446l-5.833 3.315-.107.065z" fill="url(#B)" class="B"/><path d="M20.72 20.894l-5.038-5.038L.804 30.732c.545.583 1.458.65 2.48.08l17.436-9.92z" fill="url(#C)" class="B"/><path d="M20.72 10.818L3.283.914C2.262.33 1.345.41.804.994L15.68 15.856l5.038-5.038z" fill="url(#D)" class="B"/><g fill="#000" class="B"><path opacity=".2" d="M20.612 20.787L3.295 30.625c-.967.556-1.83.518-2.387.012l-.092.092.092.08c.557.503 1.42.545 2.387-.012l17.436-9.904-.12-.107z"/><path opacity=".12" d="M26.552 17.406l-5.955 3.38.107.107 5.833-3.315c.836-.476 1.247-1.1 1.247-1.723-.05.57-.476 1.113-1.232 1.55z"/></g><path opacity=".25" d="M3.283 1.086l23.27 13.22c.756.426 1.18.982 1.247 1.55 0-.622-.41-1.247-1.247-1.723L3.283.914C1.614-.04.26.756.26 2.664v.173c0-1.91 1.354-2.693 3.024-1.75z" fill="#fff" class="B"/><defs><linearGradient id="A" x1="14.367" y1="2.379" x2="-9.315" y2="8.689" gradientUnits="userSpaceOnUse"><stop stop-color="#00a0ff"/><stop offset=".007" stop-color="#00a1ff"/><stop offset=".26" stop-color="#00beff"/><stop offset=".512" stop-color="#00d2ff"/><stop offset=".76" stop-color="#00dfff"/><stop offset="1" stop-color="#00e3ff"/></linearGradient><linearGradient id="B" x1="28.729" y1="15.856" x2="-.146" y2="15.856" gradientUnits="userSpaceOnUse"><stop stop-color="#ffe000"/><stop offset=".409" stop-color="#ffbd00"/><stop offset=".775" stop-color="orange"/><stop offset="1" stop-color="#ff9c00"/></linearGradient><linearGradient id="C" x1="17.979" y1="18.597" x2="-1.033" y2="50.596" gradientUnits="userSpaceOnUse"><stop stop-color="#ff3a44"/><stop offset="1" stop-color="#c31162"/></linearGradient><linearGradient id="D" x1="-2.942" y1="-7.798" x2="5.54" y2="6.493" gradientUnits="userSpaceOnUse"><stop stop-color="#32a071"/><stop offset=".069" stop-color="#2da771"/><stop offset=".476" stop-color="#15cf74"/><stop offset=".801" stop-color="#06e775"/><stop offset="1" stop-color="#00f076"/></linearGradient></defs></svg>