<svg xmlns="http://www.w3.org/2000/svg" width="60" height="70" fill-rule="evenodd" xmlns:v="https://vecta.io/nano"><path fill="#37b951" d="M57 69.656H47a3 3 0 0 1-3-3v-3h-4v-4h4v-3a3 3 0 0 1 3-3h10a3 3 0 0 1 3 3v10a3 3 0 0 1-3 3zm-19-3a3 3 0 0 1-3 3H25a3 3 0 0 1-3-3v-10a3 3 0 0 1 3-3h3v-7h4v7h3a3 3 0 0 1 3 3v10zm-22 0a3 3 0 0 1-3 3H3a3 3 0 0 1-3-3v-10a3 3 0 0 1 3-3h10a3 3 0 0 1 3 3v3h4v4h-4v3z"/><circle cx="30.063" cy="21.531" r="21.531" fill="#fc5424" fill-rule="nonzero"/><path fill="#fff" d="M21.426 12.887L25 11.9c.528-.1 1.05.197 1.24.7l2.105 4.33c.272.466.192 1.056-.194 1.433l-1.946 1.57a21.77 21.77 0 0 0 6.348 6.348l1.57-1.946c.377-.386.967-.466 1.433-.194l4.33 2.105c.504.2.8.712.7 1.24l-.977 3.574c-.27 1.06-.68 1.182-1.468 1.047-1.1-.193-6.23-1.082-11.3-6.466-5.383-5.066-6.273-10.187-6.465-11.3-.134-.786-.01-1.197 1.048-1.466l.002.012z"/></svg>