<svg xmlns="http://www.w3.org/2000/svg" width="58" height="64" fill-rule="evenodd" xmlns:v="https://vecta.io/nano"><path fill="#37b951" d="M4.9 48.22h10a2 2 0 0 1 2 2v11a2 2 0 0 1-2 2h-10a2 2 0 0 1-2-2v-11a2 2 0 0 1 2-2zm18-7h10a2 2 0 0 1 2 2v18a2 2 0 0 1-2 2h-10a2 2 0 0 1-2-2v-18a2 2 0 0 1 2-2zm18-9h10a2 2 0 0 1 2 2v27a2 2 0 0 1-2 2h-10a2 2 0 0 1-2-2v-27a2 2 0 0 1 2-2z"/><path fill="#405764" d="M34.72 21.22v7.2l-2.373-2.374-8.927 9.215-5.77-4.9L7.8 42.1 0 35.635l2.24-2.7 5.1 4.245 9.9-11.753 5.96 5.043 6.67-6.9-2.35-2.35z"/><path fill="#fc5424" d="M46.1-.003c6.422.001 11.628 5.208 11.628 11.63S52.52 23.254 46.1 23.255c-6.418-.006-11.618-5.2-11.62-11.63A11.63 11.63 0 0 1 46.1-.003z"/><path fill="#fff" d="M50.18 13.185a2.2 2.2 0 0 0-.33-.936 3.08 3.08 0 0 0-.86-.9 5.1 5.1 0 0 0-1.67-.724l-.4-.1-.36-.088v-2.6a1.08 1.08 0 0 1 .85.41c.24.277.372.633.37 1h2.08a3.29 3.29 0 0 0-.33-1.317 2.86 2.86 0 0 0-.71-.929 3.5 3.5 0 0 0-1.02-.585 5.33 5.33 0 0 0-1.24-.285V5.014h-.86V6.14c-.433.028-.86.114-1.27.256a3.56 3.56 0 0 0-1.09.6c-.314.264-.57.6-.75.96a2.91 2.91 0 0 0-.28 1.316 2.77 2.77 0 0 0 .24 1.222 2.46 2.46 0 0 0 .67.819 3.51 3.51 0 0 0 .94.527l1.07.344a2.43 2.43 0 0 1 .27.066 1.9 1.9 0 0 1 .2.065v3.058a2.08 2.08 0 0 1-1.13-.614 1.85 1.85 0 0 1-.44-1.317h-2.06a4.01 4.01 0 0 0 1.07 2.619c.705.633 1.613 1 2.56 1v1.244h.86V17.07c.624-.022 1.236-.17 1.8-.44a3.85 3.85 0 0 0 1.12-.834 2.75 2.75 0 0 0 .58-.958 2.62 2.62 0 0 0 .16-.812c0-.252-.02-.53-.05-.842l.01.001zm-2.55 1.785a1.71 1.71 0 0 1-.51.271 2.61 2.61 0 0 1-.55.124v-2.8a3.54 3.54 0 0 1 1.23.52 1.05 1.05 0 0 1 .35.855 1.28 1.28 0 0 1-.14.607 1.38 1.38 0 0 1-.38.432v.001-.01zm-3.24-5.9a1.26 1.26 0 0 1 .11-.534 1.16 1.16 0 0 1 .73-.607c.155-.05.317-.075.48-.074v2.385a2.43 2.43 0 0 1-1.01-.424c-.2-.2-.323-.463-.3-.746h-.01z"/></svg>